<?xml version="1.0" standalone="no"?>
<!DOCTYPE svg PUBLIC "-//W3C//DTD SVG 20010904//EN"
 "http://www.w3.org/TR/2001/REC-SVG-20010904/DTD/svg10.dtd">
<svg version="1.0" xmlns="http://www.w3.org/2000/svg"
 width="600.000000pt" height="814.000000pt" viewBox="0 0 600.000000 814.000000"
 preserveAspectRatio="xMidYMid meet">
<g transform="translate(0.000000,814.000000) scale(0.100000,-0.100000)"
fill="#ffffff" stroke="none">
<path d="M1528 7994 c-23 -26 -54 -58 -68 -73 -14 -14 -37 -42 -50 -61 -13
-19 -27 -37 -30 -40 -22 -19 -49 -69 -40 -75 6 -4 13 -5 14 -4 2 2 18 27 36
54 19 28 71 90 117 139 46 50 83 94 83 98 0 18 -21 5 -62 -38z"/>
<path d="M853 7900 c20 -21 45 -56 56 -77 22 -45 90 -124 91 -106 0 6 3 20 7
30 6 15 4 16 -9 5 -14 -11 -21 -4 -56 50 -71 111 -93 138 -109 138 -10 0 -4
-12 20 -40z"/>
<path d="M1176 7858 c-7 -49 -3 -76 10 -71 6 2 11 19 12 37 1 19 3 39 4 46 2
7 -2 14 -9 17 -7 3 -14 -9 -17 -29z"/>
<path d="M4840 7765 c-1 -5 -2 -13 -1 -17 0 -4 -7 -4 -16 -1 -9 4 -14 2 -10
-4 3 -5 -2 -9 -11 -9 -54 0 -82 -6 -94 -18 -8 -7 -32 -19 -53 -27 -22 -8 -46
-20 -53 -27 -8 -7 -18 -10 -23 -7 -5 4 -9 1 -9 -4 0 -6 -8 -11 -19 -11 -19 0
-45 -23 -36 -32 3 -3 -1 -11 -10 -18 -9 -7 -15 -8 -15 -2 0 6 6 13 13 15 8 4
7 6 -3 6 -19 1 -43 -35 -35 -52 4 -7 -1 -3 -9 7 -15 19 -22 12 -17 -17 1 -5
-3 -6 -9 -2 -12 7 -92 -64 -84 -76 2 -4 -1 -11 -7 -15 -8 -4 -9 -3 -5 4 16 27
-12 9 -34 -20 -13 -18 -32 -39 -42 -46 -10 -7 -18 -22 -18 -32 0 -10 -4 -22
-10 -25 -6 -3 -7 1 -4 9 11 28 -3 17 -30 -25 -22 -32 -25 -43 -15 -55 7 -9 8
-14 1 -14 -6 0 -16 8 -21 18 -9 15 -10 15 -11 -5 0 -13 -4 -23 -10 -23 -5 0
-10 -9 -10 -19 0 -11 -5 -23 -11 -27 -8 -4 -7 -9 2 -15 12 -7 12 -10 0 -21
-10 -10 -12 -10 -7 0 4 6 2 12 -3 12 -17 0 -13 -28 7 -40 15 -9 14 -10 -5 -5
-22 6 -23 4 -17 -39 6 -42 5 -46 -15 -46 -11 0 -20 -3 -19 -7 1 -5 -2 -33 -7
-63 -12 -81 -10 -328 4 -391 7 -30 19 -85 28 -124 30 -132 165 -373 268 -480
48 -51 130 -101 140 -85 3 5 2 10 -3 10 -5 0 -20 10 -34 23 -13 12 -43 39 -66
59 -23 21 -53 55 -68 77 -14 23 -30 38 -35 35 -5 -3 -9 4 -9 15 0 11 -9 27
-21 35 -12 8 -18 19 -15 25 4 6 -2 19 -13 30 -11 11 -17 22 -14 25 4 3 1 6 -6
6 -7 0 -10 4 -6 9 8 14 -16 61 -28 54 -7 -4 -8 1 -4 12 9 23 -12 52 -25 33 -4
-7 -5 2 -1 21 5 27 3 32 -7 26 -10 -6 -12 -4 -7 7 3 9 -1 40 -9 70 -24 89 -39
204 -35 275 1 23 -3 44 -9 48 -7 4 -7 11 -2 18 5 7 12 50 15 97 6 79 26 178
46 225 62 147 113 219 228 327 18 17 31 35 30 41 -1 6 5 11 13 12 9 0 22 6 30
13 88 78 249 160 385 198 64 18 197 18 261 0 27 -8 76 -17 108 -20 142 -15
421 -219 539 -394 70 -102 116 -296 124 -513 5 -141 1 -190 -42 -454 -10 -58
-65 -220 -87 -256 -74 -118 -193 -215 -364 -295 -106 -49 -112 -51 -209 -59
-38 -3 -95 -8 -125 -11 -40 -4 -80 1 -150 19 -163 42 -196 44 -183 12 3 -8 23
-18 44 -21 22 -4 42 -11 45 -15 3 -5 9 -7 14 -4 5 3 26 -2 47 -11 28 -12 72
-17 161 -18 67 0 122 1 122 4 0 3 24 6 54 7 32 0 74 10 102 24 27 12 53 21 59
20 5 -1 15 6 23 16 7 10 15 17 17 16 15 -8 35 -1 35 13 0 8 4 12 10 9 27 -17
217 126 276 207 21 29 42 55 46 58 15 11 78 196 89 260 6 36 20 107 31 157 11
51 17 97 14 102 -4 5 -3 12 1 14 10 6 9 221 -2 340 -6 70 -11 87 -24 88 -9 0
-11 3 -4 5 13 6 7 72 -8 88 -5 6 -9 21 -9 35 0 15 -7 39 -15 55 -8 15 -15 39
-15 52 0 16 -8 28 -25 36 -14 6 -25 20 -25 31 0 11 -13 32 -29 48 -16 15 -27
29 -25 32 2 2 -5 12 -16 22 -11 10 -20 14 -20 9 0 -5 -9 5 -19 22 -11 17 -37
44 -60 60 -22 16 -41 35 -41 43 0 8 -7 11 -20 8 -13 -3 -20 0 -20 9 0 8 -4 14
-8 14 -5 0 -18 9 -30 20 -12 12 -22 18 -22 14 0 -4 -8 0 -18 9 -10 9 -34 23
-55 32 -20 8 -37 19 -37 24 0 14 -91 44 -136 44 -24 0 -41 4 -38 8 7 12 1 11
-33 -2 -15 -5 -24 -7 -20 -3 14 14 -52 32 -103 28 -32 -2 -49 0 -45 6 3 6 -5
10 -19 10 -19 0 -24 -4 -20 -15 5 -11 2 -13 -10 -9 -9 3 -16 11 -16 16 0 6
-11 3 -24 -6 -23 -14 -25 -14 -29 2 -3 9 -6 13 -7 7z m-566 -383 c3 -5 -1 -9
-9 -9 -8 0 -12 4 -9 9 3 4 7 8 9 8 2 0 6 -4 9 -8z m-74 -102 c0 -5 -2 -10 -4
-10 -3 0 -8 5 -11 10 -3 6 -1 10 4 10 6 0 11 -4 11 -10z m1591 -27 c13 -16 12
-17 -3 -4 -10 7 -18 15 -18 17 0 8 8 3 21 -13z m-1621 -20 c0 -5 -5 -15 -10
-23 -8 -12 -10 -11 -10 8 0 12 5 22 10 22 6 0 10 -3 10 -7z m-88 -245 c-6 -6
-7 0 -4 19 5 21 7 23 10 9 2 -10 0 -22 -6 -28z m-5 -40 c-3 -8 -6 -5 -6 6 -1
11 2 17 5 13 3 -3 4 -12 1 -19z m2 -45 c0 -25 -1 -26 -9 -8 -12 27 -12 35 0
35 6 0 10 -12 9 -27z m1 -49 c0 -8 -5 -12 -10 -9 -6 4 -8 11 -5 16 9 14 15 11
15 -7z m0 -89 c0 -8 -4 -15 -10 -15 -5 0 -10 7 -10 15 0 8 5 15 10 15 6 0 10
-7 10 -15z m-2 -80 c-3 -3 -9 2 -12 12 -6 14 -5 15 5 6 7 -7 10 -15 7 -18z m2
-37 c0 -19 -2 -20 -10 -8 -13 19 -13 30 0 30 6 0 10 -10 10 -22z m17 -160 c-3
-8 -6 -5 -6 6 -1 11 2 17 5 13 3 -3 4 -12 1 -19z"/>
<path d="M1311 7599 c-36 -14 -13 -26 42 -21 31 3 47 9 47 18 0 16 -52 18 -89
3z"/>
<path d="M1115 7588 c-2 -7 -13 -44 -25 -83 -11 -38 -27 -86 -34 -105 -8 -19
-24 -62 -36 -95 -32 -85 -93 -218 -107 -233 -7 -7 -13 -24 -13 -36 0 -12 -3
-26 -7 -30 -4 -3 -8 -12 -9 -19 -1 -7 -16 -55 -33 -107 -17 -52 -32 -106 -33
-120 -1 -14 -5 -27 -8 -30 -4 -3 -22 -52 -40 -110 -18 -58 -48 -150 -66 -204
-19 -55 -34 -108 -34 -118 0 -10 -4 -18 -9 -18 -5 0 -11 -10 -14 -22 -3 -13
-15 -50 -26 -82 -25 -70 -24 -63 -8 -69 6 -2 4 -3 -6 -1 -17 2 -25 -8 -31 -38
-1 -7 -9 -29 -18 -48 -8 -20 -25 -65 -38 -100 -12 -36 -26 -69 -31 -74 -12
-13 -11 -29 1 -21 6 3 7 -1 4 -9 -3 -9 -11 -14 -17 -13 -7 1 -11 -4 -9 -12 1
-7 -1 -18 -6 -25 -5 -6 -19 -38 -31 -70 -12 -33 -31 -72 -42 -88 -11 -15 -18
-28 -14 -28 3 0 -3 -17 -14 -39 -11 -21 -17 -41 -14 -45 4 -3 1 -6 -5 -6 -6 0
-14 -20 -18 -45 -3 -25 -11 -45 -16 -45 -7 0 -9 -31 -6 -85 3 -59 1 -82 -6
-77 -6 4 -36 16 -66 26 -30 11 -59 22 -65 26 -19 14 -65 18 -65 5 0 -17 134
-78 175 -80 5 0 13 -20 17 -44 6 -33 2 -57 -13 -100 -53 -146 -71 -203 -66
-216 4 -8 19 -13 36 -13 24 1 32 7 41 31 12 35 13 107 2 107 -4 0 -8 -10 -9
-22 -1 -47 -4 -63 -13 -78 -17 -27 -22 -2 -5 29 10 21 12 31 4 31 -9 0 -8 4 0
14 7 8 8 16 3 18 -4 1 -5 14 -1 28 4 15 7 18 8 8 1 -9 9 -19 19 -22 17 -6 72
-100 72 -124 0 -7 4 -10 10 -7 5 3 10 -2 10 -12 0 -10 7 -28 15 -39 8 -12 24
-48 36 -80 12 -33 25 -61 28 -64 9 -8 29 -41 46 -80 48 -104 120 -248 135
-270 22 -32 60 -106 160 -315 45 -93 90 -181 99 -195 9 -14 27 -50 40 -80 26
-58 65 -147 111 -245 49 -106 60 -133 60 -147 0 -8 9 -26 20 -38 l21 -24 6 22
c3 12 12 22 20 22 8 0 12 -4 9 -9 -3 -5 20 2 52 15 31 13 62 24 69 24 7 0 65
23 130 50 65 28 135 58 156 67 20 9 37 22 37 29 0 7 4 16 10 19 6 3 7 -1 4
-10 -6 -13 52 12 161 73 11 6 35 17 53 24 17 7 32 16 32 20 0 5 7 8 16 8 8 0
36 12 62 27 81 45 94 51 138 65 24 7 44 16 44 20 0 13 -34 9 -58 -8 -12 -8
-37 -16 -56 -17 -19 -2 -39 -7 -43 -11 -4 -5 -3 -6 5 -2 6 4 12 2 12 -3 0 -6
-11 -11 -25 -11 -14 0 -25 -4 -25 -10 0 -5 -7 -10 -15 -10 -9 0 -27 -7 -40
-16 -14 -9 -25 -14 -25 -11 0 3 -26 -7 -58 -23 -32 -16 -65 -30 -72 -32 -8 -2
-24 -14 -37 -28 -12 -14 -23 -19 -23 -13 0 10 -6 10 -27 0 -16 -6 -30 -14 -33
-17 -3 -3 -50 -23 -105 -44 -55 -22 -104 -43 -109 -48 -6 -4 -18 -8 -28 -8
-20 0 -25 -20 -5 -21 6 0 3 -4 -8 -9 -26 -11 -44 -12 -26 -1 8 5 9 11 3 15 -5
3 -15 -1 -22 -9 -7 -8 -23 -15 -35 -15 -30 0 -95 -28 -95 -41 0 -5 4 -7 10 -4
5 3 10 2 10 -3 0 -5 -12 -9 -27 -9 -16 0 -22 2 -15 4 6 3 12 9 12 14 0 6 -8 6
-19 -1 -31 -16 -38 -12 -45 25 -4 19 -11 35 -17 35 -6 0 -8 4 -5 8 3 5 -22 64
-56 133 -33 68 -68 144 -78 169 -10 25 -51 108 -90 185 -40 77 -87 175 -106
217 -18 42 -58 120 -88 173 -31 53 -56 99 -56 102 0 2 -24 55 -53 116 -29 62
-66 144 -82 182 -16 39 -42 91 -57 116 -15 25 -28 54 -28 63 0 9 -6 16 -13 16
-7 0 -24 19 -37 43 -13 23 -32 53 -42 66 -18 23 -17 76 1 106 3 6 4 18 3 27
-2 9 8 24 22 33 24 16 29 16 98 -10 40 -15 77 -32 83 -36 15 -14 42 -10 49 7
9 24 8 27 -10 20 -8 -3 -32 3 -53 14 -21 10 -60 24 -86 31 -59 15 -66 32 -26
68 17 15 31 35 31 43 0 8 6 28 14 44 8 16 17 47 20 69 2 23 12 70 22 105 9 36
16 75 16 88 -1 12 3 22 10 22 6 0 3 10 -8 22 -14 17 -15 19 -2 10 15 -12 18
-9 27 25 6 21 13 56 17 78 3 22 19 90 36 150 45 165 51 188 49 213 0 13 3 20
9 17 6 -3 10 -1 10 6 0 23 83 276 135 414 29 77 57 154 61 170 4 17 20 59 36
94 16 34 27 69 24 77 -3 8 -2 14 2 14 5 0 14 24 21 53 8 28 28 88 46 132 18
44 47 123 65 175 17 52 40 114 51 137 10 24 19 48 19 55 0 7 7 31 15 53 19 53
19 85 0 85 -9 0 -17 -6 -20 -12z m-75 -318 c0 -5 -5 -10 -11 -10 -5 0 -7 5 -4
10 3 6 8 10 11 10 2 0 4 -4 4 -10z m-73 -160 c-1 -22 -17 -28 -17 -7 0 12 9
27 16 27 2 0 2 -9 1 -20z m-17 -50 c0 -5 -4 -10 -10 -10 -5 0 -10 5 -10 10 0
6 5 10 10 10 6 0 10 -4 10 -10z m-12 -30 c3 -8 0 -10 -8 -5 -10 6 -12 3 -8
-11 3 -10 -3 -27 -12 -36 -15 -16 -16 -14 -6 27 10 43 25 54 34 25z m-45 -108
c-3 -12 -9 -22 -14 -22 -5 0 -3 11 3 25 13 30 20 28 11 -3z m-2 -68 c-11 -15
-21 -23 -22 -18 0 5 -7 -4 -14 -21 -9 -19 -14 -24 -15 -12 0 9 9 26 20 37 11
11 20 24 20 29 0 9 22 21 29 15 2 -2 -6 -15 -18 -30z m-91 -228 c0 -3 -4 -8
-10 -11 -5 -3 -10 -1 -10 4 0 6 5 11 10 11 6 0 10 -2 10 -4z m-160 -470 c0 -3
-4 -8 -10 -11 -5 -3 -10 -1 -10 4 0 6 5 11 10 11 6 0 10 -2 10 -4z m-20 -75
c0 -5 -7 -11 -15 -15 -15 -5 -20 5 -8 17 9 10 23 9 23 -2z m-24 -49 c-14 -3
-16 -6 -6 -12 11 -7 11 -12 2 -23 -7 -8 -9 -22 -6 -31 4 -10 -1 -25 -10 -35
-21 -23 -58 -153 -46 -165 5 -5 0 -17 -11 -29 -24 -26 -24 -38 -1 -31 13 5 12
2 -5 -13 -12 -10 -24 -35 -27 -58 -4 -22 -9 -56 -12 -75 -3 -19 -10 -69 -16
-110 -7 -52 -17 -83 -32 -100 -23 -26 -38 -55 -56 -102 -12 -35 -40 -37 -40
-3 0 14 6 25 13 26 7 0 8 2 1 5 -7 3 -9 23 -6 53 3 30 0 51 -7 55 -8 5 -5 16
9 35 10 16 17 31 13 34 -3 4 2 18 11 32 9 14 14 31 10 38 -4 7 -3 9 1 4 5 -4
21 23 36 60 15 38 47 115 71 173 35 83 87 230 92 260 3 17 19 29 29 23 8 -5 6
-9 -7 -11z m-247 -844 c9 -3 6 -9 -12 -21 -22 -14 -25 -15 -21 -2 4 8 0 23 -7
32 -13 14 -12 15 6 6 11 -6 26 -12 34 -15z m1200 -1731 c-2 -1 -13 -9 -24 -17
-19 -14 -19 -14 -6 3 7 9 18 17 24 17 6 0 8 -1 6 -3z m-59 -27 c0 -5 -5 -10
-11 -10 -5 0 -7 5 -4 10 3 6 8 10 11 10 2 0 4 -4 4 -10z m-40 -20 c-8 -5 -17
-7 -19 -4 -3 3 1 9 9 14 8 5 17 7 19 4 3 -3 -1 -9 -9 -14z"/>
<path d="M571 5954 c0 -11 3 -14 6 -6 3 7 2 16 -1 19 -3 4 -6 -2 -5 -13z"/>
<path d="M760 7545 c28 -16 70 -20 70 -6 0 9 -48 21 -79 21 -11 -1 -8 -5 9
-15z"/>
<path d="M5526 7442 c-3 -5 1 -9 9 -9 8 0 12 4 9 9 -3 4 -7 8 -9 8 -2 0 -6 -4
-9 -8z"/>
<path d="M1266 7383 c83 -81 146 -164 134 -178 -7 -9 -2 -12 20 -12 17 0 30 3
30 7 0 22 -196 230 -216 230 -10 0 2 -18 32 -47z"/>
<path d="M5213 7350 c-36 -15 -27 -22 17 -15 26 4 40 3 40 -4 0 -6 5 -11 10
-11 19 0 10 17 -15 28 -14 7 -27 12 -28 11 -1 0 -12 -4 -24 -9z"/>
<path d="M5606 7348 c3 -5 10 -6 15 -3 13 9 11 12 -6 12 -8 0 -12 -4 -9 -9z"/>
<path d="M4932 7311 c-41 -7 -47 -25 -10 -28 19 -1 31 5 38 18 6 10 9 18 8 18
-2 -1 -18 -4 -36 -8z"/>
<path d="M5025 7305 c-26 -12 -27 -14 -12 -21 10 -3 23 -2 30 5 6 6 22 11 36
11 13 0 21 3 17 7 -12 12 -40 11 -71 -2z"/>
<path d="M5290 7286 c0 -14 5 -26 10 -26 6 0 10 9 10 19 0 11 -4 23 -10 26 -6
4 -10 -5 -10 -19z"/>
<path d="M3700 7274 c0 -8 5 -12 10 -9 6 4 8 11 5 16 -9 14 -15 11 -15 -7z"/>
<path d="M895 7230 c-16 -16 -47 -42 -69 -57 -69 -47 -126 -97 -126 -110 0
-23 21 -14 76 30 29 23 75 58 101 77 58 42 84 70 77 81 -10 16 -30 9 -59 -21z"/>
<path d="M1140 7218 c12 -18 24 -41 27 -50 6 -19 33 -33 33 -16 0 22 -51 98
-66 98 -13 0 -12 -6 6 -32z"/>
<path d="M5301 7211 c-8 -14 -7 -20 3 -24 10 -4 13 2 12 19 -1 29 -2 29 -15 5z"/>
<path d="M4725 7197 c-13 -20 -14 -30 -6 -46 12 -22 14 -64 5 -98 -4 -16 -14
-23 -31 -23 -19 0 -28 9 -43 45 -11 25 -24 45 -29 45 -5 0 -11 11 -13 25 -4
33 -22 37 -26 6 -4 -28 22 -102 46 -127 9 -11 33 -25 52 -32 33 -12 36 -11 58
13 12 15 22 33 22 41 0 18 1 18 51 -11 55 -31 63 -31 55 -1 -4 15 -1 27 7 30
9 5 9 7 0 12 -43 20 -81 55 -100 93 -29 57 -29 57 -48 28z m73 -89 c14 -16 32
-28 39 -28 7 0 13 -7 13 -15 0 -9 -6 -12 -15 -9 -8 4 -15 10 -15 14 0 5 -8 11
-18 14 -19 6 -52 56 -52 78 0 7 5 4 12 -7 6 -11 22 -32 36 -47z m-164 -40 c9
-17 16 -34 16 -37 0 -9 -40 53 -40 62 0 15 9 6 24 -25z m151 4 c-3 -3 -11 0
-18 7 -9 10 -8 11 6 5 10 -3 15 -9 12 -12z"/>
<path d="M5315 7130 c3 -5 8 -10 11 -10 2 0 4 5 4 10 0 6 -5 10 -11 10 -5 0
-7 -4 -4 -10z"/>
<path d="M4074 7079 c-3 -6 -1 -16 5 -22 8 -8 11 -5 11 11 0 24 -5 28 -16 11z"/>
<path d="M4433 7053 c-9 -16 -18 -30 -20 -32 -2 -3 -10 4 -17 15 -8 10 -17 16
-20 13 -9 -9 24 -131 40 -150 8 -8 14 -21 14 -27 0 -12 39 -37 47 -29 2 3 0
13 -5 24 -6 10 -15 30 -21 45 -7 20 -15 26 -28 22 -12 -4 -14 -3 -6 3 7 5 9
14 3 22 -4 8 -6 21 -2 29 3 10 1 13 -6 8 -7 -4 -12 -2 -12 3 0 6 7 11 15 11
10 0 15 -10 15 -28 0 -16 8 -36 18 -45 26 -24 39 -21 17 3 -22 24 -24 72 -5
95 13 16 15 15 28 -2 7 -10 27 -44 43 -75 30 -59 42 -69 53 -43 3 8 2 15 -2
15 -5 0 -21 27 -37 60 -26 55 -59 90 -84 90 -6 0 -18 -12 -28 -27z"/>
<path d="M5346 7058 c-8 -13 -19 -50 -25 -82 -6 -33 -13 -61 -15 -64 -4 -3
-47 32 -91 75 -7 7 -24 15 -39 19 -36 9 -35 -18 2 -41 15 -10 55 -43 90 -73
66 -58 77 -59 86 -7 20 115 25 143 31 168 9 35 -18 38 -39 5z m11 -70 c-3 -8
-6 -5 -6 6 -1 11 2 17 5 13 3 -3 4 -12 1 -19z m-13 -52 c-3 -15 -8 -25 -11
-23 -2 3 -1 17 3 31 3 15 8 25 11 23 2 -3 1 -17 -3 -31z m-11 -53 c-3 -7 -6
-13 -8 -13 -2 0 -5 6 -8 13 -3 8 1 14 8 14 7 0 11 -6 8 -14z"/>
<path d="M4260 6960 c0 -17 31 -72 37 -67 8 8 -17 77 -28 77 -5 0 -9 -5 -9
-10z"/>
<path d="M5056 6925 c-9 -13 -17 -37 -17 -52 -1 -21 -3 -23 -6 -8 -11 46 -53
63 -53 23 0 -13 -4 -29 -9 -37 -8 -12 -12 -12 -26 2 -9 10 -21 17 -26 17 -19
0 -8 -34 32 -95 44 -68 76 -93 65 -52 -3 12 -8 49 -12 80 -8 71 10 78 22 10 7
-39 13 -49 32 -51 21 -3 22 0 22 67 0 75 15 96 27 39 4 -18 6 -36 5 -40 -1 -4
12 -16 28 -28 17 -12 30 -17 30 -11 0 5 -4 12 -9 15 -4 3 -11 24 -15 47 -14
90 -56 125 -90 74z m-83 -108 c-3 -5 0 -13 7 -17 7 -4 11 -13 9 -19 -3 -7 -14
0 -25 16 -20 27 -20 29 -3 29 9 0 15 -4 12 -9z"/>
<path d="M4785 6920 c-3 -5 -14 -10 -25 -10 -21 0 -30 -19 -30 -61 0 -16 -2
-29 -5 -29 -2 0 -26 13 -52 28 -74 43 -86 46 -77 19 3 -12 7 -22 8 -23 0 -1
29 -16 64 -34 69 -36 70 -40 51 -129 -11 -52 -2 -130 15 -134 11 -2 34 107 35
161 1 17 5 32 10 32 5 0 33 -16 61 -35 29 -20 58 -34 63 -32 23 7 15 24 -20
45 -21 12 -51 33 -67 46 -27 23 -29 28 -23 78 3 29 8 61 12 71 8 18 -9 24 -20
7z m-11 -57 c-8 -46 -8 -57 0 -83 l8 -25 -19 22 c-11 13 -23 20 -27 16 -4 -4
0 10 9 30 9 21 13 42 10 47 -3 4 1 11 7 13 7 3 14 6 15 6 1 1 -1 -11 -3 -26z
m-14 -123 c0 -11 -2 -20 -4 -20 -2 0 -6 9 -9 20 -3 11 -1 20 4 20 5 0 9 -9 9
-20z"/>
<path d="M5340 6808 c0 -7 5 -20 10 -28 8 -12 10 -9 10 13 0 15 -4 27 -10 27
-5 0 -10 -6 -10 -12z"/>
<path d="M4314 6771 c3 -24 11 -51 20 -59 13 -14 14 -10 0 34 -20 70 -25 75
-20 25z"/>
<path d="M5374 6740 c3 -14 6 -28 6 -32 0 -5 5 -8 11 -8 12 0 2 39 -13 55 -7
7 -9 2 -4 -15z"/>
<path d="M5316 6695 c-3 -9 0 -15 8 -15 7 0 19 7 26 15 10 12 9 15 -8 15 -11
0 -22 -7 -26 -15z"/>
<path d="M5200 6650 c-18 -15 -19 -20 -7 -20 8 0 22 6 29 13 7 8 20 16 28 20
11 4 9 6 -6 6 -12 1 -31 -8 -44 -19z"/>
<path d="M4356 6652 c-6 -10 9 -81 19 -90 4 -4 5 9 1 28 -4 19 -8 43 -9 53 -1
19 -4 21 -11 9z"/>
<path d="M4833 6635 c2 -5 25 -11 51 -13 36 -2 47 0 44 10 -3 7 -23 12 -51 13
-27 0 -46 -4 -44 -10z"/>
<path d="M5270 6616 c0 -8 5 -18 10 -21 6 -3 10 3 10 14 0 12 -4 21 -10 21 -5
0 -10 -6 -10 -14z"/>
<path d="M5085 6604 c-13 -10 -13 -13 -1 -23 11 -9 15 -8 20 5 3 9 13 14 20
11 8 -3 19 0 25 7 9 10 5 13 -19 12 -16 -1 -36 -6 -45 -12z"/>
<path d="M4785 6587 c-3 -6 -9 -52 -15 -102 -10 -96 -7 -105 38 -105 20 0 22
-4 19 -35 -3 -19 0 -35 4 -35 5 0 9 -5 9 -11 0 -6 -8 -8 -19 -4 -15 4 -20 -1
-24 -27 -5 -33 2 -54 10 -30 3 6 11 12 18 12 8 0 17 10 21 23 3 12 15 45 26
74 19 51 19 52 58 48 44 -4 58 18 19 28 -43 11 -83 -18 -99 -70 -8 -27 -8 -27
-9 8 -1 29 3 38 20 42 16 4 20 11 16 26 -3 12 0 18 7 15 14 -5 45 46 39 64 -9
24 -33 12 -53 -27 -11 -22 -17 -47 -14 -55 5 -13 -1 -16 -29 -16 -23 0 -37 6
-41 16 -8 22 -8 26 4 19 8 -5 9 10 4 44 -6 43 -4 51 10 51 10 0 16 8 16 24 0
25 -28 44 -35 23z"/>
<path d="M5160 6561 c0 -6 4 -13 10 -16 6 -3 7 1 4 9 -7 18 -14 21 -14 7z"/>
<path d="M5276 6553 c-4 -9 -3 -20 2 -25 6 -6 12 -1 15 11 6 25 -8 38 -17 14z"/>
<path d="M5112 6548 c5 -15 28 -23 28 -10 0 5 -7 13 -16 16 -10 4 -14 1 -12
-6z"/>
<path d="M4800 6500 c0 -11 4 -20 9 -20 5 0 7 9 4 20 -3 11 -7 20 -9 20 -2 0
-4 -9 -4 -20z"/>
<path d="M5114 6506 c-10 -27 -1 -47 16 -35 11 8 12 12 3 16 -7 2 -13 9 -13
14 0 6 5 7 10 4 6 -3 10 -1 10 4 0 16 -20 13 -26 -3z"/>
<path d="M4400 6470 c0 -5 5 -10 11 -10 5 0 7 5 4 10 -3 6 -8 10 -11 10 -2 0
-4 -4 -4 -10z"/>
<path d="M5266 6458 c-11 -44 -5 -65 9 -28 17 43 17 50 6 50 -5 0 -11 -10 -15
-22z"/>
<path d="M4680 6454 c0 -8 5 -12 10 -9 6 3 10 10 10 16 0 5 -4 9 -10 9 -5 0
-10 -7 -10 -16z"/>
<path d="M4631 6441 c-8 -6 -9 -11 -3 -15 6 -3 14 -1 17 5 9 14 2 20 -14 10z"/>
<path d="M5066 6435 c-3 -9 0 -15 8 -15 8 0 16 7 20 15 3 9 0 15 -8 15 -8 0
-16 -7 -20 -15z"/>
<path d="M4534 6406 c-32 -14 -53 -36 -35 -36 11 0 81 40 81 46 0 7 -14 4 -46
-10z"/>
<path d="M5005 6410 c-3 -5 -1 -10 4 -10 6 0 11 -10 11 -22 0 -27 5 -21 14 15
5 20 3 27 -8 27 -8 0 -18 -4 -21 -10z"/>
<path d="M4430 6380 c19 -13 30 -13 30 0 0 6 -10 10 -22 10 -19 0 -20 -2 -8
-10z"/>
<path d="M4990 6379 c0 -5 5 -7 10 -4 6 3 10 8 10 11 0 2 -4 4 -10 4 -5 0 -10
-5 -10 -11z"/>
<path d="M5226 6351 c-4 -7 -5 -15 -2 -18 9 -9 19 4 14 18 -4 11 -6 11 -12 0z"/>
<path d="M5150 6290 c0 -5 5 -10 10 -10 6 0 10 5 10 10 0 6 -4 10 -10 10 -5 0
-10 -4 -10 -10z"/>
<path d="M5120 6264 c0 -8 5 -12 10 -9 6 4 8 11 5 16 -9 14 -15 11 -15 -7z"/>
<path d="M4814 6225 c-4 -8 -10 -12 -15 -9 -5 3 -11 -1 -13 -8 -1 -7 -8 -28
-14 -46 -9 -28 -8 -33 3 -28 9 3 12 0 8 -9 -3 -8 -9 -12 -14 -9 -9 5 -12 -9
-12 -56 0 -15 -2 -18 -4 -7 -7 26 -20 20 -32 -14 -9 -26 -8 -30 4 -25 8 3 15
1 15 -3 0 -5 -6 -11 -14 -14 -7 -3 -17 -23 -21 -44 -3 -21 -15 -51 -25 -68
-16 -28 -26 -58 -36 -114 -3 -13 -14 -45 -26 -70 -25 -54 -39 -110 -41 -164
-1 -24 -9 -44 -20 -51 -11 -9 -23 -43 -34 -97 -9 -46 -21 -87 -26 -90 -5 -4
-7 -16 -4 -28 3 -12 1 -23 -3 -26 -11 -7 -53 -135 -52 -157 0 -10 -3 -18 -9
-18 -5 0 -9 -6 -9 -13 0 -8 -8 -29 -17 -48 -9 -18 -17 -48 -17 -65 -1 -18 -4
-30 -7 -28 -8 5 -47 -90 -55 -136 -4 -19 -24 -73 -46 -119 -40 -87 -51 -134
-23 -97 8 11 15 31 16 45 0 23 1 24 8 6 6 -16 11 -9 25 35 10 30 38 105 63
167 24 62 41 118 37 124 -4 8 -3 9 4 5 7 -4 15 9 22 35 6 23 15 49 20 58 4 9
16 43 25 76 10 33 24 75 31 93 8 18 14 40 14 48 0 9 7 28 14 42 8 15 22 59 32
97 9 39 22 82 30 97 8 15 14 38 14 51 0 34 38 149 53 160 9 7 9 10 0 14 -7 2
-13 9 -13 14 0 5 6 8 13 7 7 -2 12 7 12 22 0 14 4 28 8 31 4 3 14 30 21 60 8
30 26 83 40 118 14 36 26 72 26 80 0 9 7 29 15 45 8 15 15 34 15 41 0 7 9 34
20 59 10 25 15 46 9 46 -5 0 -12 -7 -15 -15z m-133 -376 c-5 -13 -10 -19 -10
-12 -1 15 10 45 15 40 3 -2 0 -15 -5 -28z m-1 -39 c0 -5 -5 -10 -11 -10 -5 0
-7 5 -4 10 3 6 8 10 11 10 2 0 4 -4 4 -10z m-58 -162 c-7 -7 -12 -8 -12 -2 0
14 12 26 19 19 2 -3 -1 -11 -7 -17z m-62 -208 c0 -5 -5 -10 -11 -10 -5 0 -7 5
-4 10 3 6 8 10 11 10 2 0 4 -4 4 -10z m-140 -460 c0 -5 -2 -10 -4 -10 -3 0 -8
5 -11 10 -3 6 -1 10 4 10 6 0 11 -4 11 -10z"/>
<path d="M5022 6225 c-18 -9 -20 -15 -11 -21 7 -4 14 -3 17 4 2 7 10 12 18 12
8 0 14 5 14 10 0 13 -9 11 -38 -5z"/>
<path d="M4905 6210 c-3 -5 3 -10 14 -10 12 0 21 5 21 10 0 6 -6 10 -14 10 -8
0 -18 -4 -21 -10z"/>
<path d="M2668 5118 c-18 -23 -48 -72 -66 -108 -66 -129 -72 -140 -93 -150
-13 -7 -18 -17 -15 -27 4 -9 2 -21 -3 -27 -6 -7 -6 -18 -1 -26 7 -11 12 -11
23 -2 12 10 16 10 20 0 40 -97 106 -268 112 -285 5 -18 2 -23 -12 -23 -10 0
-43 -23 -73 -52 -30 -28 -87 -75 -127 -105 -74 -54 -105 -85 -63 -63 20 11 18
6 -11 -35 -18 -26 -37 -49 -42 -52 -13 -8 10 32 29 51 13 13 13 16 1 16 -8 0
-35 -34 -61 -76 -45 -75 -47 -79 -52 -178 -9 -172 -11 -190 -23 -194 -8 -3 -9
-8 -2 -16 7 -8 7 -46 0 -111 -5 -55 -12 -156 -14 -225 -2 -69 -6 -135 -9 -147
-3 -13 -1 -23 3 -23 4 0 4 -24 0 -52 -3 -29 -5 -56 -2 -60 2 -5 -2 -8 -9 -9
-7 0 -4 -4 7 -9 17 -7 17 -9 3 -9 -18 -1 -26 -21 -9 -21 5 0 7 -8 4 -19 -4
-15 -12 -18 -50 -14 -42 3 -178 -33 -207 -56 -6 -4 -33 -13 -59 -20 -27 -6
-68 -20 -90 -31 -68 -31 -320 -110 -363 -113 -21 -1 -44 -6 -51 -10 -6 -4 -15
-2 -19 4 -4 7 -3 9 4 5 6 -3 13 -2 17 4 3 6 -1 13 -10 16 -20 8 -55 -23 -55
-48 0 -19 15 -24 25 -8 8 13 65 13 65 -1 0 -6 9 -8 23 -3 12 4 29 8 37 9 40 5
139 28 173 41 20 8 54 14 73 14 20 0 127 28 238 61 110 34 208 64 217 66 19 5
18 -9 -7 -202 -8 -60 -14 -128 -14 -151 0 -69 -10 -104 -31 -104 -10 0 -20 -8
-24 -19 -7 -24 -61 -72 -70 -63 -4 4 -6 1 -3 -7 2 -7 -9 -27 -24 -44 -16 -16
-26 -32 -23 -35 5 -5 75 62 75 72 0 6 79 86 85 86 16 0 -4 -26 -72 -93 -42
-43 -82 -77 -89 -77 -12 0 -70 -54 -124 -116 -14 -16 -44 -44 -67 -63 -23 -18
-46 -45 -52 -58 -6 -13 -15 -22 -20 -18 -5 3 -13 -4 -16 -16 -8 -23 -25 -45
-97 -123 -26 -28 -50 -60 -54 -71 -4 -10 -13 -25 -20 -33 -8 -7 -28 -34 -46
-59 -17 -25 -40 -56 -50 -67 -10 -12 -25 -28 -32 -36 -8 -8 -15 -22 -17 -30
-4 -24 12 -80 23 -80 6 0 8 9 5 20 -6 25 33 87 146 232 48 62 109 140 134 173
44 57 431 455 443 455 3 0 4 -26 2 -57 -9 -171 0 -472 15 -497 7 -10 40 -172
47 -224 1 -12 15 -36 31 -52 29 -31 30 -33 20 -150 -2 -33 7 -178 21 -315 4
-33 6 -69 6 -80 -2 -30 47 -267 58 -287 6 -10 10 -25 10 -34 0 -22 55 -99 88
-122 15 -11 44 -21 64 -24 35 -4 41 1 110 72 40 41 82 94 92 117 11 25 23 40
30 36 6 -3 8 -3 4 1 -3 4 3 33 14 64 136 377 167 491 190 700 10 91 10 116 -6
195 -10 51 -26 110 -36 132 -21 44 -20 68 5 195 9 46 15 102 13 122 -2 21 -1
38 3 38 8 0 16 91 25 270 3 63 13 169 24 235 10 66 21 165 25 220 13 210 19
250 36 240 5 -4 9 3 9 15 0 12 -4 19 -8 16 -11 -7 -2 117 10 132 7 8 7 12 -3
12 -10 0 -10 3 -1 12 7 7 12 19 12 27 0 14 -1 14 -10 1 -18 -28 5 274 25 323
5 11 2 17 -6 17 -10 0 -11 3 -3 8 17 10 25 232 12 301 -7 35 -22 69 -40 91
-15 19 -60 76 -98 126 -72 95 -134 144 -154 124 -8 -8 -2 -18 20 -35 18 -14
35 -36 38 -50 4 -14 17 -30 30 -35 30 -11 163 -211 172 -257 3 -18 1 -70 -5
-115 -15 -121 -23 -219 -27 -343 -1 -60 -5 -161 -7 -222 -3 -82 -1 -111 7
-106 8 5 7 2 -1 -8 -17 -21 -33 -119 -19 -119 8 0 8 -2 0 -8 -7 -4 -15 -50
-19 -102 -7 -106 -9 -119 -29 -275 -7 -60 -14 -117 -14 -125 -5 -129 -14 -279
-22 -330 -31 -221 -38 -305 -27 -312 9 -6 9 -8 0 -8 -6 0 -10 -8 -8 -18 1 -9
0 -11 -2 -4 -3 7 -9 9 -15 6 -6 -4 -8 6 -5 26 4 25 2 30 -9 26 -8 -3 -12 -2
-9 3 3 5 1 12 -5 16 -5 3 -15 26 -21 51 -9 33 -17 46 -35 50 -13 3 -24 10 -24
15 0 5 13 3 30 -6 32 -17 60 -20 60 -6 0 16 -115 37 -124 23 -3 -5 -24 -8 -48
-7 -46 2 -148 -15 -148 -25 0 -4 33 -5 74 -2 46 2 82 0 96 -8 20 -10 22 -10
17 3 -3 10 1 17 14 20 10 3 19 1 19 -4 0 -5 11 -15 25 -21 16 -7 23 -17 20
-27 -3 -9 9 -43 25 -76 16 -33 30 -70 30 -82 0 -14 6 -23 15 -23 14 0 19 -14
18 -47 -1 -7 3 -10 8 -7 5 3 9 -6 9 -20 0 -14 5 -26 11 -26 6 0 3 -7 -5 -16
-18 -17 -21 -28 -7 -19 13 8 22 -10 23 -45 1 -17 5 -33 10 -36 4 -3 3 -14 -3
-25 -5 -11 -7 -29 -4 -39 4 -11 3 -25 -2 -32 -16 -27 -14 -58 4 -58 15 0 15
-2 4 -9 -19 -12 -38 13 -36 48 3 45 17 96 29 103 7 5 5 8 -6 8 -16 0 -35 -49
-29 -77 1 -7 -2 -13 -6 -13 -4 0 -8 -22 -8 -49 0 -40 2 -45 12 -32 11 14 12
13 13 -9 0 -20 2 -22 10 -10 5 8 10 10 10 4 0 -6 -7 -17 -15 -24 -8 -7 -12
-17 -9 -22 3 -5 -2 -18 -12 -29 -9 -10 -13 -19 -7 -19 5 0 8 -14 5 -30 -2 -17
-9 -30 -14 -30 -6 0 -7 -8 -4 -17 4 -9 1 -20 -6 -24 -9 -6 -9 -13 0 -34 7 -15
8 -24 2 -20 -6 4 -10 -7 -10 -25 0 -18 -4 -29 -10 -25 -5 3 -7 0 -4 -8 3 -8 1
-18 -5 -22 -6 -3 -11 -18 -11 -33 0 -30 -15 -60 -25 -50 -4 3 -2 16 5 27 6 12
7 21 2 21 -17 0 -30 -47 -27 -93 2 -38 -5 -63 -37 -129 -22 -46 -41 -88 -42
-94 -1 -7 -7 -18 -13 -25 -6 -8 -18 -28 -27 -46 -18 -37 -113 -133 -130 -133
-7 0 -23 5 -37 12 -38 18 -109 146 -109 197 0 14 2 14 10 1 8 -12 10 -11 10 7
0 25 -16 39 -23 21 -3 -7 -7 -2 -8 12 -4 42 -6 54 -12 90 -4 19 -9 62 -11 95
-3 33 -11 116 -17 185 -15 166 -6 440 16 456 20 15 19 25 -1 17 -13 -5 -15 -2
-10 14 4 11 8 51 11 88 2 37 9 73 16 81 7 8 12 32 11 52 0 29 1 33 8 17 6 -14
9 -15 10 -5 1 17 60 99 60 84 0 -5 6 0 12 11 11 19 11 19 19 0 7 -20 8 -20 8
0 1 11 10 26 22 33 18 11 23 11 34 -5 8 -10 19 -31 26 -48 24 -64 37 -87 42
-78 3 5 -6 42 -21 81 -25 67 -29 72 -57 71 -46 0 -111 -39 -154 -92 -46 -55
-70 -115 -51 -127 8 -5 7 -9 -5 -14 -12 -4 -15 -13 -12 -27 3 -12 0 -22 -9
-26 -8 -3 -14 -11 -14 -19 0 -8 -5 -14 -12 -14 -6 0 -8 -3 -4 -7 4 -5 14 0 21
10 7 10 16 14 19 8 4 -5 2 -12 -3 -15 -5 -3 -7 -24 -5 -45 2 -22 -3 -56 -11
-75 -14 -33 -13 -40 6 -38 4 1 5 -8 2 -19 -5 -19 -6 -19 -22 -2 -10 11 -15 28
-13 42 3 16 1 22 -7 17 -7 -5 -10 0 -8 16 2 12 -2 36 -8 53 -7 16 -15 46 -18
65 -2 19 -9 53 -15 75 -21 79 -33 391 -15 404 4 3 8 58 9 121 0 135 17 332 45
555 12 88 22 223 24 300 6 243 32 646 49 768 3 15 10 36 18 45 70 89 256 271
285 278 13 4 20 10 17 16 -3 5 3 12 14 15 11 3 23 11 26 19 4 10 14 12 31 8
17 -4 26 -2 28 7 35 128 119 394 129 406 16 20 0 102 -32 168 -16 33 -36 77
-44 98 -8 20 -22 37 -30 37 -8 0 -29 -19 -48 -42z m88 -118 c38 -96 40 -106
28 -139 -33 -93 -105 -332 -103 -344 1 -6 -3 -23 -9 -37 -9 -20 -11 -21 -10
-5 2 11 -1 26 -6 34 -7 10 -6 12 4 6 21 -13 8 47 -51 236 -15 51 -28 75 -36
72 -10 -4 -10 -11 1 -31 7 -15 25 -61 39 -102 14 -41 28 -84 32 -95 7 -17 5
-17 -9 2 -9 13 -24 47 -33 75 -8 29 -26 74 -39 100 -28 54 -29 59 -11 56 6 -2
11 4 9 14 -1 9 10 38 25 65 16 27 46 83 68 126 22 42 45 75 50 74 6 -2 28 -50
51 -107z m61 -122 c-3 -7 -5 -2 -5 12 0 14 2 19 5 13 2 -7 2 -19 0 -25z m33
-501 c10 -4 7 -6 -7 -6 -13 -1 -23 1 -23 3 0 2 -3 13 -6 23 -6 16 -5 17 7 2 8
-9 21 -19 29 -22z m160 -197 c11 -7 11 -10 2 -10 -7 0 -10 -4 -7 -10 3 -5 4
-10 1 -10 -3 0 -10 9 -16 20 -12 22 -4 25 20 10z m17 -322 c-3 -8 -6 -5 -6 6
-1 11 2 17 5 13 3 -3 4 -12 1 -19z m-30 -150 c-3 -8 -6 -5 -6 6 -1 11 2 17 5
13 3 -3 4 -12 1 -19z m-10 -300 c-3 -7 -5 -2 -5 12 0 14 2 19 5 13 2 -7 2 -19
0 -25z m-817 -371 c0 -12 -129 -57 -163 -57 -9 0 -19 -5 -22 -10 -4 -6 -11 -8
-16 -5 -5 4 -9 2 -9 -3 0 -6 -17 -13 -37 -16 -21 -4 -73 -19 -116 -33 -57 -18
-82 -22 -90 -14 -6 6 -7 14 -2 18 4 5 10 3 12 -4 3 -8 20 -4 57 12 40 18 145
45 173 45 1 0 0 8 -3 18 -5 14 -4 14 4 3 9 -13 15 -13 44 1 29 14 141 53 161
57 4 0 7 -5 7 -12z m-485 -137 c-3 -5 -16 -10 -28 -9 -20 1 -20 2 3 9 14 4 26
8 28 9 2 1 0 -3 -3 -9z m455 -420 c0 -5 -2 -10 -4 -10 -3 0 -8 5 -11 10 -3 6
-1 10 4 10 6 0 11 -4 11 -10z m747 -872 c-3 -8 -6 -5 -6 6 -1 11 2 17 5 13 3
-3 4 -12 1 -19z m-12 -108 c-1 -11 -4 -22 -7 -25 -4 -5 -4 34 1 43 4 8 7 -1 6
-18z m-8 -65 c0 -8 -4 -12 -9 -9 -5 3 -6 10 -3 15 9 13 12 11 12 -6z m-37
-105 c0 -5 -5 -10 -11 -10 -5 0 -7 5 -4 10 3 6 8 10 11 10 2 0 4 -4 4 -10z
m-60 -239 c3 -2 -3 -1 -12 2 -21 7 -23 -3 -5 -23 10 -12 9 -12 -5 -1 -10 7
-18 22 -18 33 0 20 7 18 40 -11z m-68 -173 c-7 -7 -12 -8 -12 -2 0 14 12 26
19 19 2 -3 -1 -11 -7 -17z m-49 -103 c-3 -9 -8 -14 -10 -11 -3 3 -2 9 2 15 9
16 15 13 8 -4z"/>
<path d="M341 5054 c0 -11 3 -14 6 -6 3 7 2 16 -1 19 -3 4 -6 -2 -5 -13z"/>
<path d="M4200 4509 c0 -5 -4 -8 -9 -4 -5 3 -29 -8 -53 -23 -24 -16 -58 -35
-75 -43 -18 -8 -33 -17 -33 -21 0 -5 -6 -8 -14 -8 -8 0 -22 -8 -32 -17 -10
-10 -20 -18 -23 -19 -21 -3 -61 -25 -61 -33 0 -6 -7 -8 -15 -5 -8 4 -17 -1
-21 -9 -3 -8 -24 -23 -47 -33 -23 -11 -50 -27 -59 -36 -9 -9 -26 -15 -38 -13
-13 2 -20 -1 -20 -11 0 -9 -5 -12 -11 -8 -6 3 -14 3 -18 -2 -15 -22 -80 -63
-115 -72 -21 -6 -52 -21 -69 -34 -18 -13 -54 -35 -82 -48 -27 -14 -55 -30 -61
-36 -7 -6 -27 -17 -46 -23 -18 -7 -42 -17 -53 -22 -87 -37 -148 -57 -160 -52
-8 3 -15 1 -15 -5 0 -25 41 -19 139 19 102 40 290 134 302 151 3 5 26 16 51
26 50 19 98 46 310 171 78 46 167 95 198 110 30 15 79 42 108 59 29 18 57 32
62 32 6 0 10 5 10 10 0 6 -11 10 -25 10 -14 0 -25 -5 -25 -11z"/>
<path d="M2580 4364 c0 -22 24 -39 41 -28 5 3 9 1 9 -4 0 -14 113 7 130 25 13
14 12 15 -10 10 -14 -3 -53 -9 -86 -13 -54 -5 -63 -4 -73 12 -10 18 -10 18
-11 -2z"/>
<path d="M2530 4284 c0 -25 61 -47 125 -45 79 2 88 4 116 24 13 10 18 15 12
12 -7 -3 -13 -1 -13 5 0 7 -7 5 -16 -4 -27 -27 -198 -22 -191 5 1 6 -6 13 -15
14 -10 2 -18 -3 -18 -11z"/>
<path d="M2785 3996 c-16 -34 -14 -56 6 -56 9 0 18 18 33 68 12 37 -21 27 -39
-12z m12 -28 c-3 -8 -6 -5 -6 6 -1 11 2 17 5 13 3 -3 4 -12 1 -19z"/>
<path d="M2410 4002 c0 -15 16 -29 48 -43 17 -8 32 -20 32 -26 0 -7 5 -13 10
-13 17 0 11 18 -13 44 -24 25 -77 52 -77 38z"/>
<path d="M2799 3863 c-15 -40 -16 -75 -2 -80 7 -3 17 13 23 39 7 24 17 49 22
56 8 9 5 12 -11 12 -14 0 -25 -9 -32 -27z"/>
<path d="M2415 3871 c23 -21 90 -51 94 -40 5 15 -1 19 -55 35 -27 8 -44 10
-39 5z"/>
<path d="M2002 3580 c-7 -11 -9 -20 -4 -20 10 0 32 22 32 32 0 15 -15 8 -28
-12z"/>
<path d="M2905 3560 c4 -6 11 -8 16 -5 14 9 11 15 -7 15 -8 0 -12 -5 -9 -10z"/>
<path d="M1958 3536 c-10 -7 -14 -16 -10 -20 4 -4 -1 -12 -11 -17 -19 -11 -23
-34 -5 -45 6 -4 8 -3 4 4 -3 6 5 23 19 38 14 15 25 33 25 40 0 17 0 17 -22 0z"/>
<path d="M2292 3528 c3 -7 17 -14 32 -16 19 -2 26 0 21 7 -3 6 -10 9 -15 6 -5
-3 -11 -1 -15 5 -9 14 -27 12 -23 -2z"/>
<path d="M2837 3521 c-4 -17 -2 -18 14 -8 22 14 25 27 5 27 -7 0 -16 -9 -19
-19z"/>
<path d="M2420 3511 c-33 -6 -34 -7 -10 -13 14 -4 43 -5 65 -1 32 5 35 8 20
14 -23 9 -27 9 -75 0z"/>
<path d="M2734 3493 c-9 -28 -56 -115 -77 -145 -19 -26 -20 -26 -53 -10 -19 8
-36 24 -40 34 -3 10 -9 18 -13 18 -4 0 -13 16 -20 35 -8 23 -19 35 -31 35 -17
0 -18 -3 -8 -25 7 -16 17 -24 26 -20 10 4 12 0 8 -10 -9 -24 22 -63 65 -86 49
-24 51 -24 84 9 23 23 95 155 95 175 0 15 -31 6 -36 -10z"/>
<path d="M2550 3490 c0 -3 12 -10 26 -17 22 -10 25 -10 20 2 -4 12 -2 13 13 3
14 -9 23 -7 42 6 24 17 23 17 -38 14 -35 -2 -63 -5 -63 -8z"/>
<path d="M2771 3454 c0 -11 3 -14 6 -6 3 7 2 16 -1 19 -3 4 -6 -2 -5 -13z"/>
<path d="M1865 3420 c-16 -16 -26 -32 -24 -34 5 -5 69 51 69 60 0 12 -19 1
-45 -26z"/>
<path d="M2760 3414 c0 -8 5 -12 10 -9 6 3 10 10 10 16 0 5 -4 9 -10 9 -5 0
-10 -7 -10 -16z"/>
<path d="M2445 3399 c-4 -6 3 -13 15 -16 14 -4 19 -11 15 -22 -5 -12 -3 -13 5
-5 9 9 9 17 1 33 -13 23 -26 27 -36 10z"/>
<path d="M3010 3400 c0 -5 5 -10 11 -10 5 0 7 5 4 10 -3 6 -8 10 -11 10 -2 0
-4 -4 -4 -10z"/>
<path d="M1771 3347 c-6 -8 -7 -17 -3 -21 4 -4 1 -6 -7 -4 -8 2 -17 -8 -22
-24 -4 -16 -4 -28 -1 -28 8 0 72 76 72 84 0 11 -28 6 -39 -7z"/>
<path d="M3015 3340 c-3 -5 -1 -10 4 -10 6 0 11 5 11 10 0 6 -2 10 -4 10 -3 0
-8 -4 -11 -10z"/>
<path d="M2756 3318 c-8 -13 -17 -41 -19 -63 -3 -22 -2 -32 0 -22 2 9 9 17 15
17 5 0 8 6 5 13 -2 6 2 27 9 45 15 37 11 42 -10 10z"/>
<path d="M2491 3264 c0 -11 3 -14 6 -6 3 7 2 16 -1 19 -3 4 -6 -2 -5 -13z"/>
<path d="M1660 3221 c-28 -27 -39 -51 -24 -51 4 0 21 16 40 35 40 43 25 58
-16 16z"/>
<path d="M2483 3226 c0 -8 8 -11 19 -8 10 2 15 8 12 13 -8 14 -31 11 -31 -5z"/>
<path d="M4050 3228 c0 -22 17 -41 24 -29 4 6 5 15 2 20 -4 5 0 12 6 14 7 3 3
6 -9 6 -13 1 -23 -5 -23 -11z"/>
<path d="M2500 3178 c0 -36 4 -35 14 5 4 16 2 27 -4 27 -5 0 -10 -14 -10 -32z"/>
<path d="M3099 3163 c-13 -16 -12 -17 4 -4 16 13 21 21 13 21 -2 0 -10 -8 -17
-17z"/>
<path d="M4011 3134 c-32 -50 -39 -74 -20 -74 12 0 64 109 56 117 -3 3 -20
-16 -36 -43z"/>
<path d="M2730 3150 c0 -5 5 -10 10 -10 6 0 10 5 10 10 0 6 -4 10 -10 10 -5 0
-10 -4 -10 -10z"/>
<path d="M3030 3150 c0 -5 -9 -10 -20 -10 -25 0 -25 -10 -2 -36 10 -10 36 -44
59 -75 23 -31 47 -62 55 -70 7 -8 19 -26 27 -41 13 -26 71 -100 112 -145 12
-13 26 -20 32 -16 6 3 7 1 3 -5 -4 -7 -2 -17 4 -24 6 -7 19 -23 30 -36 100
-123 261 -292 277 -292 14 0 34 39 26 53 -2 4 1 7 6 7 6 0 11 12 11 28 0 15 4
33 9 41 5 8 7 20 4 28 -7 18 -33 17 -33 -2 0 -9 -7 -18 -15 -21 -9 -4 -15 -19
-15 -38 0 -18 -3 -36 -7 -39 -7 -7 -74 61 -121 123 -15 19 -40 49 -55 65 -16
17 -47 54 -69 83 -22 28 -44 52 -49 52 -5 0 -9 5 -9 10 0 10 -95 131 -210 268
-54 63 -59 72 -39 72 12 0 19 -3 16 -6 -8 -9 11 -44 24 -44 6 0 7 6 2 13 -4 6
-8 18 -9 25 -5 28 -44 57 -44 32z m603 -660 c-3 -11 -10 -23 -16 -27 -5 -3 -8
-2 -5 3 3 5 8 17 11 27 9 24 16 22 10 -3z m-23 -50 c0 -5 -7 -10 -16 -10 -8 0
-12 5 -9 10 3 6 10 10 16 10 5 0 9 -4 9 -10z"/>
<path d="M1551 3101 c-17 -16 -31 -38 -31 -50 0 -12 -4 -21 -10 -21 -5 0 -10
-4 -10 -10 0 -15 29 0 35 18 3 10 19 32 35 51 17 18 30 35 30 37 0 12 -22 0
-49 -25z"/>
<path d="M2713 3092 c-18 -42 -21 -112 -4 -112 7 0 24 130 17 137 -1 1 -7 -10
-13 -25z"/>
<path d="M3087 3098 c4 -7 8 -19 9 -26 2 -7 49 -61 106 -119 57 -58 108 -110
113 -117 94 -105 157 -180 172 -203 10 -15 23 -33 29 -39 6 -7 23 -26 38 -44
21 -26 30 -30 39 -21 9 10 6 17 -14 35 -15 13 -42 43 -60 68 -96 128 -122 160
-195 237 -183 193 -264 272 -237 229z"/>
<path d="M2520 3031 c0 -25 10 -51 20 -51 5 0 7 8 5 18 -2 9 -4 25 -4 35 -1
23 -21 22 -21 -2z"/>
<path d="M3947 3036 c-9 -10 -17 -30 -17 -45 0 -15 -5 -32 -12 -39 -9 -9 -9
-12 0 -12 9 0 33 31 38 50 0 3 4 13 8 22 13 29 2 43 -17 24z"/>
<path d="M1420 2960 c-11 -11 -20 -30 -20 -42 0 -12 3 -18 8 -12 4 5 20 24 36
42 24 25 26 32 13 32 -9 0 -26 -9 -37 -20z"/>
<path d="M2696 2934 c-4 -14 -5 -29 -2 -31 3 -3 8 7 12 21 3 15 4 29 1 32 -2
3 -8 -7 -11 -22z"/>
<path d="M3330 2896 c0 -2 8 -10 18 -17 15 -13 16 -12 3 4 -13 16 -21 21 -21
13z"/>
<path d="M3874 2892 c-15 -10 -34 -47 -34 -68 0 -16 2 -16 18 2 10 11 22 32
26 47 7 29 6 30 -10 19z"/>
<path d="M2546 2838 c-9 -36 -7 -88 4 -88 6 0 10 25 10 55 0 59 -4 69 -14 33z"/>
<path d="M2661 2770 c-14 -64 -14 -100 -1 -100 6 0 11 12 11 28 1 15 3 48 5
75 2 26 1 47 -1 47 -2 0 -8 -23 -14 -50z"/>
<path d="M3794 2727 c-32 -48 -33 -52 -24 -67 6 -9 14 0 30 34 26 58 23 77 -6
33z"/>
<path d="M2940 2671 c0 -22 5 -43 11 -46 6 -4 8 -14 4 -23 -3 -9 -3 -14 0 -10
3 3 55 -90 114 -206 176 -343 230 -444 306 -576 105 -182 193 -353 188 -367
-3 -8 4 -13 17 -13 27 0 150 -71 211 -122 47 -38 79 -49 79 -26 0 6 6 4 13 -6
9 -13 20 -16 40 -11 l27 7 -37 20 c-21 11 -42 25 -48 32 -15 17 -104 72 -146
89 -20 8 -40 20 -43 26 -4 6 -15 11 -25 11 -24 0 -44 26 -66 85 -10 28 -80
176 -155 331 -76 154 -145 305 -155 335 -24 73 -50 124 -94 184 -20 28 -61 94
-91 148 -38 69 -59 97 -72 97 -16 0 -17 -3 -8 -20 6 -11 17 -20 24 -20 18 0
30 -31 15 -40 -7 -5 -8 -10 -1 -14 6 -3 13 -1 15 4 3 6 4 5 3 -2 -4 -16 47
-117 73 -144 10 -12 22 -30 25 -42 5 -14 12 -19 23 -15 10 4 14 2 10 -4 -10
-16 3 -44 16 -36 6 3 7 1 3 -5 -9 -14 32 -133 50 -148 8 -6 11 -13 8 -16 -8
-8 28 -78 37 -72 12 7 41 -56 34 -74 -3 -9 -3 -13 1 -9 6 6 74 -102 74 -117 0
-4 -27 -1 -40 4 -3 1 -8 2 -12 1 -3 0 -5 13 -3 30 4 25 1 29 -14 24 -12 -4
-21 0 -25 11 -5 13 -4 14 7 6 14 -12 27 -7 27 10 0 5 -4 6 -10 3 -5 -3 -10 -1
-10 4 0 6 -9 11 -20 11 -11 0 -20 4 -20 10 0 5 8 7 18 3 16 -6 15 -5 -1 15
-12 12 -16 26 -11 34 5 9 2 8 -11 -2 -17 -14 -18 -13 -12 2 8 23 -49 143 -164
343 -25 44 -52 96 -59 115 -7 19 -20 43 -28 52 -8 9 -11 21 -8 26 3 6 -1 12
-9 16 -8 3 -15 12 -15 21 0 8 -4 15 -10 15 -5 0 -9 3 -9 8 4 24 -2 52 -11 47
-5 -3 -10 -1 -10 4 0 6 5 11 11 11 8 0 8 5 -1 15 -21 25 -30 17 -30 -24z m160
-171 c0 -5 -2 -10 -4 -10 -3 0 -8 5 -11 10 -3 6 -1 10 4 10 6 0 11 -4 11 -10z
m304 -658 c3 7 3 0 -1 -17 -3 -17 -2 -26 3 -22 9 8 10 12 13 39 2 16 11 4 16
-21 2 -12 11 -36 20 -53 18 -38 18 -35 -1 -42 -12 -5 -14 -3 -7 6 14 19 -20
81 -36 65 -9 -9 -13 -7 -17 11 -4 12 -10 22 -15 22 -5 0 -9 5 -9 11 0 8 4 8
14 0 11 -9 15 -9 20 1z m76 -137 c0 -8 -4 -15 -10 -15 -5 0 -7 7 -4 15 4 8 8
15 10 15 2 0 4 -7 4 -15z m39 -66 c25 -27 34 -60 15 -52 -8 3 -11 9 -8 14 7
12 -15 41 -26 34 -4 -3 -10 2 -14 10 -8 22 10 18 33 -6z m55 -121 c3 -17 14
-40 23 -50 9 -10 11 -18 6 -18 -6 0 -20 20 -32 45 -24 50 -25 55 -12 55 5 0
11 -14 15 -32z m286 -219 c0 -5 -4 -9 -10 -9 -5 0 -10 7 -10 16 0 8 5 12 10 9
6 -3 10 -10 10 -16z"/>
<path d="M3810 2641 c0 -6 4 -13 10 -16 6 -3 7 1 4 9 -7 18 -14 21 -14 7z"/>
<path d="M3705 2592 c-15 -11 -36 -62 -30 -73 13 -20 25 -7 63 74 5 9 -20 9
-33 -1z"/>
<path d="M2632 2543 c-8 -21 -15 -63 -17 -93 -2 -30 -1 -47 2 -37 2 9 8 17 13
17 4 0 6 15 5 33 -2 17 2 37 7 44 5 6 8 26 6 43 l-3 32 -13 -39z"/>
<path d="M2557 2550 c-3 -11 -1 -33 3 -48 7 -23 8 -21 9 21 1 50 -3 60 -12 27z"/>
<path d="M2941 2554 c0 -11 3 -14 6 -6 3 7 2 16 -1 19 -3 4 -6 -2 -5 -13z"/>
<path d="M5660 2500 c0 -5 5 -10 10 -10 6 0 10 5 10 10 0 6 -4 10 -10 10 -5 0
-10 -4 -10 -10z"/>
<path d="M2940 2485 c0 -8 5 -15 10 -15 6 0 10 7 10 15 0 8 -4 15 -10 15 -5 0
-10 -7 -10 -15z"/>
<path d="M2930 2400 c0 -5 5 -10 10 -10 6 0 10 5 10 10 0 6 -4 10 -10 10 -5 0
-10 -4 -10 -10z"/>
<path d="M2563 2325 c0 -22 2 -30 4 -17 2 12 2 30 0 40 -3 9 -5 -1 -4 -23z"/>
<path d="M2602 2303 c-5 -10 -12 -30 -16 -45 -5 -22 -3 -28 9 -28 9 0 14 4 11
9 -3 4 -1 23 4 41 11 38 6 51 -8 23z"/>
<path d="M1687 2209 c7 -7 15 -10 18 -7 3 3 -2 9 -12 12 -14 6 -15 5 -6 -5z"/>
<path d="M2907 2190 c-3 -11 -1 -20 4 -20 5 0 9 9 9 20 0 11 -2 20 -4 20 -2 0
-6 -9 -9 -20z"/>
<path d="M2777 2153 c-3 -5 3 -15 13 -23 10 -8 17 -17 15 -21 -3 -4 2 -12 10
-19 12 -10 13 -7 9 17 -5 27 -24 57 -24 38 0 -6 -4 -4 -9 4 -5 7 -11 9 -14 4z"/>
<path d="M2622 2105 c-15 -30 -22 -63 -21 -98 l1 -52 14 58 c7 31 21 71 30 88
9 18 12 35 7 40 -5 5 -18 -10 -31 -36z"/>
<path d="M2704 2097 c0 -13 7 -24 14 -24 16 0 12 39 -4 44 -7 2 -11 -6 -10
-20z"/>
<path d="M2891 2061 c-1 -24 2 -32 9 -25 7 7 7 19 1 35 -9 23 -10 22 -10 -10z"/>
<path d="M2391 2053 c-5 -10 -9 -49 -10 -87 0 -38 -3 -78 -7 -88 -3 -10 1 -25
9 -32 13 -13 14 -2 15 83 0 54 3 108 7 120 8 25 -1 28 -14 4z"/>
<path d="M2161 2044 c0 -11 3 -14 6 -6 3 7 2 16 -1 19 -3 4 -6 -2 -5 -13z"/>
<path d="M3830 2030 c0 -5 5 -10 10 -10 6 0 10 5 10 10 0 6 -4 10 -10 10 -5 0
-10 -4 -10 -10z"/>
<path d="M3315 2010 c-3 -5 -1 -10 4 -10 6 0 11 5 11 10 0 6 -2 10 -4 10 -3 0
-8 -4 -11 -10z"/>
<path d="M2881 1994 c0 -11 3 -14 6 -6 3 7 2 16 -1 19 -3 4 -6 -2 -5 -13z"/>
<path d="M2715 1878 c-3 -18 -10 -44 -16 -58 -6 -16 -5 -42 1 -70 l9 -45 -2
43 c-1 23 1 42 5 42 4 0 5 6 2 14 -3 8 -1 17 5 20 6 4 8 12 5 20 -3 7 0 25 5
39 6 15 7 27 2 27 -5 0 -12 -15 -16 -32z"/>
<path d="M3370 1891 c0 -5 5 -13 10 -16 6 -3 10 -2 10 4 0 5 -4 13 -10 16 -5
3 -10 2 -10 -4z"/>
<path d="M2221 1794 c0 -11 3 -14 6 -6 3 7 2 16 -1 19 -3 4 -6 -2 -5 -13z"/>
<path d="M2396 1778 c-5 -21 -5 -46 0 -55 6 -15 8 -13 12 10 2 15 2 39 0 55
-4 25 -5 24 -12 -10z"/>
<path d="M2847 1793 c-3 -5 -1 -17 4 -28 6 -17 7 -16 6 8 -1 28 -3 32 -10 20z"/>
<path d="M2683 1623 c-6 -15 -11 -43 -12 -62 -1 -19 -7 -41 -13 -48 -7 -9 -7
-13 0 -13 16 0 21 13 31 82 10 71 8 81 -6 41z"/>
<path d="M2410 1591 c-8 -30 -7 -45 5 -67 13 -26 15 -27 15 -7 0 12 -4 25 -10
28 -5 3 -10 11 -10 16 0 6 5 7 10 4 6 -4 10 8 10 29 0 47 -7 46 -20 -3z"/>
<path d="M1377 1564 c7 -3 10 -11 7 -18 -3 -8 2 -20 11 -29 11 -11 14 -29 11
-62 -3 -36 0 -48 14 -55 19 -10 32 -68 17 -73 -5 -1 -2 -23 7 -47 l17 -45 -4
75 c-2 41 -9 84 -15 95 -13 22 -37 133 -33 153 1 7 -8 12 -21 11 -13 0 -18 -3
-11 -5z"/>
<path d="M2822 1505 c0 -16 2 -22 5 -12 2 9 2 23 0 30 -3 6 -5 -1 -5 -18z"/>
<path d="M2801 1474 c0 -11 3 -14 6 -6 3 7 2 16 -1 19 -3 4 -6 -2 -5 -13z"/>
<path d="M2786 1433 c-3 -10 -9 -24 -12 -30 -3 -7 -1 -13 4 -13 5 0 13 12 16
26 8 30 2 44 -8 17z"/>
<path d="M2437 1413 c-7 -16 -6 -62 2 -67 4 -3 8 13 7 34 -1 41 -2 46 -9 33z"/>
<path d="M2634 1364 c-6 -19 -8 -37 -3 -40 8 -5 25 63 17 71 -2 2 -8 -12 -14
-31z"/>
<path d="M2770 1378 c-1 -2 -3 -29 -5 -60 -2 -32 -9 -66 -14 -76 -6 -11 -7
-22 -3 -26 3 -4 0 -11 -8 -16 -13 -8 -12 -10 3 -10 9 0 17 3 18 8 0 4 2 18 4
32 11 71 16 150 11 150 -3 0 -6 -1 -6 -2z"/>
<path d="M2469 1273 c-7 -48 -6 -84 1 -88 4 -3 8 18 7 45 0 28 -2 50 -4 50 -1
0 -3 -3 -4 -7z"/>
<path d="M2602 1240 c0 -14 2 -19 5 -12 2 6 2 18 0 25 -3 6 -5 1 -5 -13z"/>
<path d="M1457 1168 c4 -7 8 -16 9 -20 1 -5 2 -9 4 -10 1 -2 4 -16 6 -32 10
-58 23 -62 17 -6 -4 30 -12 60 -19 67 -16 17 -28 17 -17 1z"/>
<path d="M2581 1154 c0 -11 3 -14 6 -6 3 7 2 16 -1 19 -3 4 -6 -2 -5 -13z"/>
<path d="M4045 1150 c-3 -5 2 -13 12 -16 10 -3 28 -10 41 -15 32 -12 27 5 -5
22 -16 7 -31 15 -35 17 -3 2 -9 -2 -13 -8z"/>
<path d="M1511 1000 c-1 -8 -4 -26 -7 -40 -5 -19 -4 -22 5 -14 7 6 11 24 8 40
-2 16 -5 22 -6 14z"/>
<path d="M4260 984 c0 -6 64 -34 77 -34 4 0 -3 9 -17 20 -23 18 -60 27 -60 14z"/>
<path d="M1520 920 c0 -11 4 -20 9 -20 6 0 9 9 8 20 -1 11 -5 20 -9 20 -4 0
-8 -9 -8 -20z"/>
<path d="M4442 858 c3 -7 13 -15 24 -17 16 -3 17 -1 5 13 -16 19 -34 21 -29 4z"/>
<path d="M2351 843 c0 -4 4 -17 9 -28 8 -19 9 -19 9 2 1 12 -3 25 -9 28 -5 3
-10 3 -9 -2z"/>
<path d="M1537 801 c-3 -11 1 -28 8 -38 7 -10 18 -56 24 -102 12 -90 17 -104
27 -77 4 10 -1 44 -10 77 -9 32 -16 71 -16 86 0 61 -22 95 -33 54z"/>
<path d="M2611 708 c-49 -59 -62 -78 -54 -78 11 0 47 40 63 69 12 23 7 28 -9
9z"/>
<path d="M4685 645 c52 -45 77 -45 31 0 -20 19 -44 35 -54 35 -12 0 -5 -11 23
-35z"/>
<path d="M1600 473 c0 -14 19 -38 25 -32 8 8 -5 39 -16 39 -5 0 -9 -3 -9 -7z"/>
<path d="M4970 340 c0 -13 28 -25 38 -16 3 4 0 11 -8 16 -20 13 -30 12 -30 0z"/>
<path d="M1620 310 c0 -5 5 -10 10 -10 6 0 10 5 10 10 0 6 -4 10 -10 10 -5 0
-10 -4 -10 -10z"/>
<path d="M1640 239 c0 -11 5 -17 10 -14 6 3 10 13 10 21 0 8 -4 14 -10 14 -5
0 -10 -9 -10 -21z"/>
</g>
</svg>
